<?xml version="1.0" standalone="no"?>
<!DOCTYPE svg PUBLIC "-//W3C//DTD SVG 20010904//EN"
 "http://www.w3.org/TR/2001/REC-SVG-20010904/DTD/svg10.dtd">
<svg version="1.0" xmlns="http://www.w3.org/2000/svg"
 width="512.000000pt" height="512.000000pt" viewBox="0 0 512.000000 512.000000"
 preserveAspectRatio="xMidYMid meet">
<metadata>
Created by potrace 1.11, written by Peter Selinger 2001-2013
</metadata>
<g transform="translate(0.000000,512.000000) scale(0.100000,-0.100000)"
fill="#000000" stroke="none">
<path d="M2325 5114 c-16 -2 -66 -9 -110 -15 -550 -73 -1065 -329 -1465 -729
-394 -393 -632 -863 -727 -1435 -26 -158 -26 -592 0 -750 95 -567 331 -1037
717 -1425 141 -142 244 -228 405 -335 696 -466 1601 -556 2380 -239 318 130
600 318 845 564 487 486 750 1122 750 1810 0 592 -194 1144 -566 1610 -87 109
-275 297 -384 384 -360 287 -754 461 -1230 542 -91 15 -539 29 -615 18z m376
-964 c223 -23 376 -67 574 -165 426 -211 749 -627 845 -1088 61 -292 45 -563
-50 -848 -133 -401 -419 -727 -811 -925 -86 -43 -275 -107 -381 -128 -392 -80
-810 -6 -1156 205 -199 122 -398 321 -520 521 -95 155 -171 347 -206 520 -85
418 1 852 242 1213 90 136 291 337 427 427 312 208 682 303 1036 268z"/>
<path d="M2360 3501 c-287 -61 -531 -251 -661 -516 -77 -158 -93 -229 -93
-425 0 -196 16 -267 93 -425 132 -268 376 -456 671 -517 122 -26 315 -21 433
11 333 88 600 356 688 688 30 111 36 301 15 417 -16 84 -58 212 -75 229 -4 4
-31 -8 -59 -27 -89 -60 -200 -69 -299 -26 -62 27 -137 102 -164 163 -45 101
-24 252 43 325 27 28 21 34 -63 66 -151 57 -364 71 -529 37z m430 -643 c33
-17 51 -35 68 -68 27 -55 28 -82 1 -136 -26 -56 -77 -88 -138 -88 -165 0 -215
220 -68 293 54 27 82 26 137 -1z"/>
</g>
</svg>
