<?xml version="1.0" standalone="no"?>
<!DOCTYPE svg PUBLIC "-//W3C//DTD SVG 20010904//EN"
 "http://www.w3.org/TR/2001/REC-SVG-20010904/DTD/svg10.dtd">
<svg version="1.0" xmlns="http://www.w3.org/2000/svg"
 width="300.000000pt" height="300.000000pt" viewBox="0 0 300.000000 300.000000"
 preserveAspectRatio="xMidYMid meet">
<metadata>
Created by potrace 1.11, written by Peter Selinger 2001-2013
</metadata>
<g transform="translate(0.000000,300.000000) scale(0.100000,-0.100000)"
fill="#000000" stroke="none">
<path d="M1418 2735 c-2 -2 -52 -5 -113 -9 -60 -3 -121 -8 -135 -12 -30 -6
-116 -7 -146 0 -13 2 -36 -5 -55 -18 -19 -13 -79 -36 -134 -51 -454 -128 -761
-389 -791 -673 -5 -51 -1 -81 31 -232 2 -8 11 -51 20 -95 50 -240 190 -551
311 -692 10 -12 27 -32 37 -45 35 -46 146 -155 152 -150 3 3 5 0 5 -6 0 -7 6
-12 13 -12 7 0 18 -9 25 -20 7 -12 18 -18 24 -14 7 4 8 3 4 -4 -4 -7 -2 -12 4
-12 6 0 8 -4 5 -10 -3 -5 -1 -10 4 -10 6 0 11 5 11 11 0 5 5 7 11 3 8 -4 4
-11 -11 -19 -13 -7 -19 -14 -14 -17 5 -3 3 -3 -4 -1 -8 1 -12 -3 -9 -9 2 -7
-3 -18 -10 -23 -12 -9 -11 -15 6 -35 12 -14 19 -18 16 -9 -4 10 0 16 10 16 10
0 14 -6 10 -14 -7 -20 13 -55 27 -47 7 5 9 2 5 -9 -4 -12 -2 -14 11 -10 15 6
16 5 2 -13 -11 -15 -11 -16 0 -7 20 18 35 16 20 -2 -9 -11 -9 -15 -1 -15 7 0
23 -11 37 -25 24 -24 25 -24 19 -4 -5 13 -3 19 3 15 5 -3 15 0 21 8 9 10 7 13
-6 13 -44 0 -49 2 -33 14 13 9 12 10 -2 5 -10 -3 -20 0 -24 6 -5 7 -2 8 6 3 8
-5 11 -4 6 3 -4 6 -14 9 -24 6 -15 -5 -15 -4 -2 6 13 10 12 11 -3 6 -12 -4
-16 -2 -11 6 5 7 3 8 -6 3 -9 -6 -11 -4 -5 5 6 9 4 11 -5 5 -9 -5 -11 -4 -6 3
5 8 1 10 -10 5 -12 -4 -15 -2 -12 8 7 21 53 18 52 -4 -1 -10 3 -16 10 -14 6 2
10 11 8 20 -3 21 10 28 28 15 12 -8 11 -9 -4 -4 -13 4 -17 2 -13 -8 3 -7 0
-19 -6 -26 -10 -10 -8 -12 6 -6 10 3 21 6 23 6 3 0 2 6 -2 13 -4 7 -3 9 2 4 5
-5 9 -18 9 -30 1 -31 13 -47 30 -40 19 7 19 -1 -1 -38 -8 -17 -13 -33 -10 -36
3 -3 9 5 14 17 5 13 12 19 15 13 4 -6 -3 -24 -15 -39 -20 -26 -20 -27 -2 -12
11 10 24 18 28 18 13 0 35 -27 28 -35 -4 -4 3 -2 16 4 20 11 27 10 42 -4 21
-19 20 -42 -1 -55 -10 -7 -9 -9 7 -8 12 1 21 9 21 18 0 31 3 40 13 40 6 0 10
-6 10 -14 0 -8 7 -16 15 -20 13 -5 13 -2 -1 19 -16 24 -11 31 19 26 4 0 7 8 7
18 0 11 5 23 11 27 8 4 9 -1 4 -16 -6 -20 -5 -21 15 -10 26 14 38 6 20 -15 -7
-8 -8 -15 -2 -15 14 0 33 25 25 33 -3 4 -1 7 5 7 17 0 15 -15 -3 -30 -8 -7
-12 -17 -8 -23 4 -6 1 -7 -7 -2 -8 5 -11 4 -6 -3 3 -6 -3 -13 -14 -17 -21 -7
-28 -35 -9 -35 5 0 7 5 4 10 -3 6 1 13 10 16 9 4 27 23 40 43 14 19 25 30 25
23 0 -7 4 -11 10 -7 5 3 7 13 4 23 -5 14 -4 14 4 2 8 -10 8 -18 0 -27 -13 -16
4 -17 20 -1 9 9 17 7 35 -10 27 -26 45 -29 26 -5 -10 11 -10 14 -1 9 7 -4 12
-2 12 6 0 8 4 7 11 -4 5 -10 16 -15 24 -12 8 4 15 2 15 -4 0 -11 18 -11 38 1
7 5 12 3 12 -3 0 -6 4 -9 10 -5 5 3 7 13 4 23 -4 10 -3 13 3 6 4 -6 20 -10 35
-8 18 2 31 -3 38 -14 8 -15 9 -15 10 3 0 17 2 17 10 5 6 -10 6 -16 0 -18 -6
-2 -8 -8 -5 -12 3 -5 12 -7 20 -4 11 5 12 11 4 26 -6 11 -8 23 -4 26 3 3 8 -4
12 -16 5 -22 7 -22 30 -7 23 15 26 15 48 -7 36 -36 55 -50 55 -40 0 5 -3 12
-7 15 -3 4 -8 19 -9 34 -2 15 0 23 4 18 11 -15 33 -17 49 -4 11 10 17 9 30 -4
15 -15 15 -18 -3 -38 -10 -13 -13 -19 -6 -15 6 4 12 3 12 -3 0 -6 7 -7 17 -4
11 4 14 3 9 -5 -13 -22 5 -12 29 16 13 15 25 22 25 16 0 -6 -7 -17 -15 -24 -8
-7 -15 -18 -15 -24 0 -6 5 -3 11 7 6 9 15 14 21 11 7 -4 8 -2 4 4 -4 7 -1 12
9 12 9 0 13 -4 10 -10 -3 -5 -1 -10 5 -10 6 0 9 8 6 18 -4 13 -1 19 9 19 8 0
14 -5 13 -11 -2 -6 2 -11 7 -11 5 0 9 7 7 15 -2 10 2 9 13 -4 8 -11 15 -15 15
-9 0 7 -4 14 -9 18 -5 3 -7 18 -5 32 6 32 14 43 14 20 0 -10 3 -16 8 -15 13 4
52 -13 52 -23 0 -13 -14 -11 -28 3 -9 9 -12 9 -12 -2 0 -9 -5 -8 -15 6 -15 17
-15 16 -1 -12 12 -24 12 -34 3 -45 -10 -11 -9 -11 5 0 9 7 14 19 11 27 -3 8 0
14 6 14 6 0 11 -5 11 -11 0 -8 6 -7 16 2 15 12 16 11 10 -11 -6 -24 -6 -24 9
3 9 15 13 31 11 36 -3 5 1 12 10 15 24 9 28 7 14 -9 -7 -8 -9 -15 -5 -15 4 0
2 -6 -4 -13 -8 -10 -7 -14 4 -14 8 0 11 5 8 10 -4 6 0 8 11 4 14 -6 15 -3 6
13 -6 11 -7 20 -3 20 10 1 -28 30 -39 30 -4 0 -7 -6 -6 -13 2 -6 -3 -11 -10
-9 -9 1 -11 -2 -6 -10 4 -7 -1 -6 -12 3 -10 9 -26 19 -34 22 -12 4 -11 6 3 6
9 1 17 6 17 11 0 6 5 10 11 10 8 0 9 -4 0 -13 -15 -19 -2 -29 16 -12 8 8 11
20 7 27 -5 7 5 3 20 -10 29 -23 55 -21 33 2 -6 8 -15 12 -19 9 -4 -2 -5 3 -2
11 5 12 11 10 30 -12 24 -25 25 -26 19 -4 -4 13 -2 22 5 22 6 0 9 -4 6 -9 -3
-5 1 -12 10 -15 24 -9 29 -7 17 5 -6 6 -9 18 -6 26 4 11 9 9 20 -7 8 -11 19
-20 25 -20 7 0 6 6 -2 15 -7 9 -8 15 -2 15 14 0 23 -28 12 -35 -6 -4 -15 -3
-22 1 -6 4 -8 3 -4 -4 4 -6 -3 -9 -19 -8 -13 2 -22 0 -19 -5 2 -4 -5 -6 -16
-4 -13 3 -18 0 -14 -7 5 -7 2 -8 -5 -3 -8 4 -7 -4 3 -24 17 -32 30 -43 20 -16
-9 22 5 38 22 24 17 -14 48 6 37 24 -4 6 0 8 9 4 16 -6 58 26 58 44 0 6 5 7
11 3 8 -4 8 -9 0 -17 -14 -14 -14 -27 0 -27 7 0 17 -7 24 -16 10 -15 12 -14
10 7 -1 17 -7 23 -20 21 -16 -3 -17 -2 -6 12 11 13 17 14 28 4 12 -10 20 -6
42 21 14 17 30 29 34 25 11 -12 38 -14 31 -3 -3 5 -10 7 -15 4 -5 -4 -9 -2 -9
3 0 17 13 22 28 9 11 -8 14 -8 9 0 -4 6 -4 13 1 15 4 1 -1 12 -12 22 -16 16
-18 16 -13 3 3 -9 3 -19 -2 -21 -4 -3 -7 11 -7 31 1 20 7 38 14 41 6 2 12 -1
12 -8 0 -6 -5 -8 -11 -4 -7 4 -10 1 -7 -7 3 -8 11 -13 17 -11 7 1 10 -2 6 -7
-3 -6 4 -15 15 -21 11 -6 17 -16 14 -22 -4 -7 -2 -8 5 -4 9 6 9 11 0 23 -11
12 -9 14 12 10 13 -2 18 -2 11 0 -7 3 -9 9 -6 15 4 6 2 8 -4 4 -6 -3 -13 -2
-17 4 -4 6 -11 8 -16 5 -5 -4 -9 -1 -9 4 0 6 6 11 13 11 6 1 1 8 -13 16 -14 8
-17 13 -8 10 20 -6 38 20 31 44 -3 8 1 6 10 -5 9 -11 19 -16 24 -11 4 5 2 11
-4 13 -7 3 -13 9 -13 14 0 5 11 2 24 -6 15 -10 27 -12 30 -6 4 5 -3 12 -14 16
-20 7 -28 25 -10 25 6 0 10 -4 10 -10 0 -5 7 -10 15 -10 8 0 15 5 15 11 0 5
-5 7 -11 3 -8 -5 -8 -1 0 13 6 11 8 23 5 26 -3 3 -3 11 1 17 5 8 11 7 22 -2
14 -11 15 -10 9 8 -7 21 18 53 31 40 3 -3 2 -6 -3 -6 -5 0 -10 -11 -10 -25 -1
-14 2 -23 6 -20 5 3 12 0 16 -6 4 -8 3 -9 -5 -5 -6 4 -11 4 -10 -1 4 -23 -3
-24 -26 -3 -14 13 -25 19 -25 12 0 -6 12 -20 26 -31 15 -12 23 -21 19 -21 -5
0 -17 7 -27 17 -10 9 -18 12 -18 7 0 -13 13 -29 25 -31 6 -1 19 -5 30 -8 11
-4 16 -3 10 2 -10 7 -11 19 -5 41 1 4 8 -6 15 -23 12 -24 14 -26 15 -9 0 11
-3 24 -7 28 -4 3 -8 12 -9 19 -1 7 -5 20 -9 30 -5 11 -3 17 6 17 7 0 9 3 6 7
-4 3 -1 13 5 20 9 12 9 14 -3 13 -7 -1 -21 -2 -29 -1 -12 1 -11 4 3 12 9 6 15
14 12 20 -4 5 -1 9 5 9 7 0 9 -7 6 -16 -4 -12 -1 -14 13 -9 11 3 22 1 26 -4 3
-6 0 -9 -7 -8 -7 2 -10 2 -5 0 4 -3 7 -9 7 -14 0 -6 -5 -7 -12 -3 -6 4 -8 3
-4 -4 3 -6 2 -13 -4 -17 -6 -4 -7 -11 -4 -17 5 -7 2 -8 -7 -3 -8 5 -11 4 -6
-1 5 -5 14 -9 19 -9 6 0 13 -6 16 -14 3 -8 0 -11 -7 -7 -6 4 -11 2 -11 -3 0
-6 4 -11 9 -11 16 0 23 20 12 34 -11 13 -5 26 11 26 5 0 6 -5 3 -10 -3 -6 -1
-10 5 -10 6 0 9 -4 6 -8 -3 -5 1 -9 8 -9 10 0 9 8 -5 31 -22 36 -25 53 -6 38
9 -8 16 -6 24 7 9 14 7 20 -9 30 -26 16 -16 26 12 11 20 -11 21 -10 9 12 -11
21 -11 22 4 9 11 -9 17 -10 17 -2 0 6 -4 11 -8 11 -5 0 -8 16 -7 35 2 19 -3
39 -11 45 -10 9 -13 7 -11 -9 1 -12 5 -21 9 -21 4 0 8 -5 8 -11 0 -5 -4 -8 -9
-4 -16 9 -23 -13 -11 -35 9 -16 8 -19 -5 -14 -9 4 -14 9 -11 12 3 2 -1 17 -9
32 -16 31 -11 42 13 33 14 -5 14 -3 5 7 -12 13 -9 18 28 48 15 11 16 9 14 -18
-1 -16 1 -30 6 -30 5 0 7 11 5 25 -3 13 0 27 5 30 9 6 13 -7 10 -37 -1 -9 3
-19 8 -23 7 -4 8 0 4 10 -3 10 0 21 8 26 11 7 11 9 1 9 -7 0 -10 5 -7 10 3 6
1 10 -5 10 -8 0 -9 7 -5 17 12 29 14 63 4 63 -6 0 -7 5 -4 10 5 7 11 8 19 1 8
-7 17 -6 26 1 12 8 12 9 -2 4 -19 -6 -36 12 -22 23 5 3 10 12 12 20 2 8 16 41
31 75 63 136 127 327 146 436 3 19 15 82 27 140 31 159 22 254 -33 368 -71
147 -190 249 -426 366 -132 65 -296 123 -403 141 -19 3 -66 12 -105 20 -38 7
-97 16 -130 20 -33 4 -75 9 -93 11 -33 5 -300 13 -304 9z m1250 -1696 c-7 -13
-21 -25 -31 -25 -14 -2 -15 1 -6 12 6 8 16 11 21 8 5 -3 9 0 7 7 -4 31 1 43
12 32 8 -8 7 -17 -3 -34z m-85 -159 c3 -11 0 -20 -6 -20 -7 0 -1 -9 13 -20 14
-10 21 -22 17 -27 -5 -4 -15 1 -24 12 -8 11 -19 19 -25 17 -7 -2 -6 3 1 12 8
9 11 25 8 36 -3 11 -2 18 3 15 4 -3 10 -14 13 -25z m42 20 c3 -5 1 -10 -4 -10
-6 0 -11 5 -11 10 0 6 2 10 4 10 3 0 8 -4 11 -10z m-72 -25 c-3 -9 -8 -14 -10
-11 -3 3 -2 9 2 15 9 16 15 13 8 -4z m-46 -30 c0 -8 -4 -15 -9 -15 -10 0 -11
14 -1 23 9 10 10 9 10 -8z m-17 -45 c0 -5 -2 -10 -4 -10 -3 0 -8 5 -11 10 -3
6 -1 10 4 10 6 0 11 -4 11 -10z m-44 -36 c-3 -15 -8 -29 -11 -32 -3 -3 -3 5
-1 19 2 13 5 27 5 32 1 4 3 7 6 7 3 0 3 -12 1 -26z m134 22 c0 -2 -8 -10 -17
-17 -16 -13 -17 -12 -4 4 13 16 21 21 21 13z m-220 -60 c0 -2 -8 -10 -17 -17
-16 -13 -17 -12 -4 4 13 16 21 21 21 13z m50 -16 c0 -5 -2 -10 -4 -10 -3 0 -8
5 -11 10 -3 6 -1 10 4 10 6 0 11 -4 11 -10z m-42 -20 c-7 -10 -14 -17 -17 -15
-4 4 18 35 25 35 2 0 -1 -9 -8 -20z m-81 -54 c-1 -6 5 -9 13 -8 8 2 11 0 7 -4
-4 -4 -15 -9 -23 -10 -9 -1 -13 0 -10 3 3 4 1 11 -4 18 -7 8 -5 12 5 12 7 0
13 -5 12 -11z m46 -1 c-3 -9 -8 -14 -10 -11 -3 3 -2 9 2 15 9 16 15 13 8 -4z
m-1629 -10 c-5 -11 -2 -13 10 -9 9 3 13 11 9 18 -3 6 -2 8 2 3 13 -12 16 -47
4 -47 -5 0 -7 5 -4 10 3 6 1 10 -4 10 -6 0 -11 -6 -11 -12 0 -9 -4 -8 -10 2
-9 13 -10 13 -10 0 0 -13 -1 -13 -10 0 -7 11 -10 11 -10 2 0 -7 -5 -10 -11 -6
-7 4 0 14 18 25 34 23 34 23 27 4z m1552 -7 c3 -4 -1 -5 -10 -4 -8 1 -18 5
-22 8 -3 4 1 5 10 4 8 -1 18 -5 22 -8z m-1481 -17 c-3 -6 -11 -11 -16 -11 -5
0 -4 6 3 14 14 16 24 13 13 -3z m75 -1 c0 -5 -5 -10 -11 -10 -5 0 -7 5 -4 10
3 6 8 10 11 10 2 0 4 -4 4 -10z m1465 0 c-3 -5 -12 -10 -18 -10 -7 0 -6 4 3
10 19 12 23 12 15 0z m-228 -15 c0 -8 -4 -12 -9 -9 -5 3 -6 10 -3 15 9 13 12
11 12 -6z m87 -3 c2 -4 -4 -8 -14 -8 -10 0 -16 4 -14 8 3 4 9 8 14 8 5 0 11
-4 14 -8z m-129 -11 c3 -5 2 -12 -3 -15 -5 -3 -9 1 -9 9 0 17 3 19 12 6z m251
-28 c-3 -3 0 -15 6 -27 6 -11 7 -18 3 -14 -9 8 -27 -8 -44 -40 -9 -18 -16 -20
-30 -12 -10 5 -22 6 -26 2 -5 -4 -6 -2 -3 3 3 6 0 15 -7 22 -10 9 -15 6 -25
-17 -7 -16 -20 -35 -29 -42 -14 -11 -14 -11 -3 3 7 9 10 24 6 33 -4 11 -1 16
10 16 9 0 16 5 16 11 0 5 -6 7 -12 3 -9 -5 -8 -2 1 9 13 17 15 16 36 -3 12
-11 25 -17 30 -13 4 5 5 3 2 -4 -5 -7 0 -10 10 -9 10 2 19 9 19 17 1 8 3 17 4
22 4 12 7 27 9 38 0 5 6 7 12 3 8 -4 9 1 5 17 -6 21 -6 22 4 6 7 -10 9 -21 6
-24z m-1439 16 c-9 -6 -15 -14 -12 -20 4 -5 1 -9 -4 -9 -6 0 -11 4 -11 8 0 12
22 32 35 32 5 0 2 -5 -8 -11z m1395 -7 c-7 -2 -10 -8 -6 -13 3 -5 3 -9 0 -9
-3 0 -10 9 -15 19 -9 17 -8 18 11 13 13 -3 17 -7 10 -10z m-47 -13 c-4 -5 -12
-9 -18 -8 -9 0 -8 2 1 6 6 2 9 10 6 15 -4 7 -2 8 5 4 6 -4 9 -12 6 -17z m165
11 c0 -5 -5 -10 -11 -10 -5 0 -7 5 -4 10 3 6 8 10 11 10 2 0 4 -4 4 -10z
m-230 -4 c0 -2 -8 -10 -17 -17 -16 -13 -17 -12 -4 4 13 16 21 21 21 13z
m-1240 -21 c-7 -8 -16 -13 -20 -10 -5 3 -11 -1 -13 -7 -3 -8 -6 -5 -6 6 -1 12
4 16 14 13 8 -4 17 -2 20 3 4 6 9 10 12 10 3 0 0 -7 -7 -15z m72 0 c10 2 20 0
22 -4 3 -4 -10 -7 -28 -7 -20 0 -33 5 -33 13 0 8 5 9 11 4 6 -5 19 -7 28 -6z
m1058 -4 c0 -6 -4 -12 -8 -15 -5 -3 -9 1 -9 9 0 8 4 15 9 15 4 0 8 -4 8 -9z
m116 -8 c-2 -9 -9 -19 -17 -21 -11 -3 -11 -1 1 7 8 6 11 11 7 11 -5 0 -5 5 -2
10 9 15 14 12 11 -7z m89 9 c14 -9 17 -55 4 -46 -6 3 -8 12 -5 20 3 7 -3 18
-12 23 -9 6 -12 10 -7 11 6 0 15 -4 20 -8z m-1390 -12 c3 -5 1 -10 -4 -10 -6
0 -11 5 -11 10 0 6 2 10 4 10 3 0 8 -4 11 -10z m1375 -12 c0 -6 -6 -5 -15 2
-8 7 -15 14 -15 16 0 2 7 1 15 -2 8 -4 15 -11 15 -16z m-1290 -5 c0 -3 -7 -3
-15 1 -8 3 -15 1 -15 -3 0 -5 -3 -17 -6 -26 -6 -15 -4 -15 14 -4 18 11 24 11
34 0 11 -11 9 -12 -11 -6 -18 5 -22 4 -16 -5 5 -8 4 -11 -2 -7 -6 4 -13 0 -17
-8 -6 -17 2 -19 24 -5 10 6 20 4 34 -8 18 -16 18 -16 11 7 -6 19 -4 23 9 18 9
-4 20 1 26 11 11 16 11 16 6 0 -6 -21 -2 -22 24 -8 13 7 18 6 16 -3 -4 -24
-27 -57 -47 -68 -18 -9 -26 -6 -49 16 -20 19 -30 23 -35 14 -5 -8 -4 -10 3 -5
7 4 12 2 12 -3 0 -16 -9 -14 -37 9 -14 11 -22 20 -18 20 4 0 2 6 -4 14 -9 11
-9 16 2 23 7 4 16 16 20 25 5 15 37 16 37 1z m335 8 c3 -5 2 -12 -3 -15 -5 -3
-9 1 -9 9 0 17 3 19 12 6z m825 -1 c0 -5 -4 -10 -10 -10 -5 0 -10 5 -10 10 0
6 5 10 10 10 6 0 10 -4 10 -10z m-1104 -24 c1 -9 -5 -12 -20 -8 -18 5 -18 7
-3 10 10 2 14 8 11 15 -4 7 -3 8 1 4 5 -4 10 -14 11 -21z m-180 -13 c-6 -6
-36 9 -36 18 0 5 9 4 20 -3 10 -7 18 -14 16 -15z m297 7 c10 -12 9 -12 -3 -3
-8 6 -23 9 -33 8 -9 -2 -15 0 -12 5 7 12 33 6 48 -10z m58 3 c12 -16 12 -17
-2 -6 -9 7 -20 9 -24 5 -5 -4 -5 -1 -1 6 9 16 11 15 27 -5z m320 -6 c-10 -9
-11 -8 -5 6 3 10 9 15 12 12 3 -3 0 -11 -7 -18z m564 13 c3 -5 1 -10 -4 -10
-6 0 -11 5 -11 10 0 6 2 10 4 10 3 0 8 -4 11 -10z m82 -6 c-3 -3 -12 -4 -19
-1 -8 3 -5 6 6 6 11 1 17 -2 13 -5z m-926 -21 c13 -16 12 -17 -3 -4 -17 13
-22 21 -14 21 2 0 10 -8 17 -17z m99 13 c0 -2 -8 -10 -17 -17 -16 -13 -17 -12
-4 4 13 16 21 21 21 13z m145 -4 c-3 -3 0 -11 6 -19 17 -20 5 -16 -14 5 -15
16 -15 19 -2 19 8 0 13 -3 10 -5z m89 -4 c-3 -4 -9 -8 -15 -8 -5 0 -9 4 -9 8
0 5 7 9 15 9 8 0 12 -4 9 -9z m356 -8 c-13 -24 -14 -24 -31 -2 -13 15 -12 16
2 4 14 -10 18 -10 23 3 3 8 8 15 11 15 3 0 1 -9 -5 -20z m80 10 c0 -5 -4 -10
-10 -10 -5 0 -10 5 -10 10 0 6 5 10 10 10 6 0 10 -4 10 -10z m-847 -20 c-3
-12 -8 -19 -11 -16 -5 6 5 36 12 36 2 0 2 -9 -1 -20z m203 -5 c1 -8 -1 -17 -5
-19 -4 -3 -7 6 -7 19 0 25 8 25 12 0z m79 3 c-1 -13 3 -30 9 -38 9 -13 9 -13
-5 -2 -13 9 -19 43 -10 60 4 9 7 -1 6 -20z m340 13 c3 -5 2 -12 -3 -15 -5 -3
-9 1 -9 9 0 17 3 19 12 6z m-584 -28 c-12 -20 -14 -14 -5 12 4 9 9 14 11 11 3
-2 0 -13 -6 -23z m102 12 c4 -8 3 -16 -1 -19 -4 -3 -9 4 -9 15 -2 23 3 25 10
4z m227 6 c0 -5 -8 -15 -17 -22 -16 -12 -17 -12 -6 2 7 9 10 19 6 22 -3 4 -1
7 5 7 7 0 12 -4 12 -9z m154 -16 c1 -9 9 -21 17 -26 9 -5 10 -9 2 -9 -6 0 -15
6 -20 13 -9 15 -16 53 -7 45 3 -3 7 -14 8 -23z m122 -5 c-1 -16 -5 -33 -9 -36
-18 -18 -5 -25 15 -8 12 10 18 13 13 5 -5 -9 -3 -12 6 -9 8 3 22 1 31 -3 10
-6 19 -5 23 1 3 5 -1 10 -9 10 -8 0 -18 4 -21 10 -4 6 1 7 11 3 10 -4 15 -2
11 3 -3 6 -1 16 5 24 8 13 9 12 5 -1 -3 -9 1 -26 9 -38 16 -22 15 -23 -15 -25
-11 0 -23 -4 -27 -8 -4 -4 -13 -3 -19 2 -8 7 -17 4 -29 -9 -10 -11 -25 -17
-37 -14 -19 5 -19 7 -3 24 9 11 13 19 8 19 -5 0 -2 5 6 10 8 5 16 18 16 30 2
32 4 40 8 40 3 0 3 -13 2 -30z m69 20 c-3 -5 -12 -10 -18 -10 -7 0 -6 4 3 10
19 12 23 12 15 0z m85 1 c0 -5 -7 -12 -16 -15 -14 -5 -15 -4 -4 9 14 17 20 19
20 6z m-716 -27 c3 -8 2 -12 -4 -9 -6 3 -10 10 -10 16 0 14 7 11 14 -7z m31
-2 c-3 -3 -11 0 -18 7 -9 10 -8 11 6 5 10 -3 15 -9 12 -12z m68 -12 c3 -11 1
-20 -4 -20 -5 0 -9 9 -9 20 0 11 2 20 4 20 2 0 6 -9 9 -20z m227 -24 c0 -6 -7
-1 -15 10 -8 10 -15 23 -15 28 0 6 7 1 15 -10 8 -10 15 -23 15 -28z m20 29 c7
-9 8 -15 2 -15 -5 0 -12 7 -16 15 -3 8 -4 15 -2 15 2 0 9 -7 16 -15z m260 5
c-8 -5 -19 -10 -25 -10 -5 0 -3 5 5 10 8 5 20 10 25 10 6 0 3 -5 -5 -10z m57
-12 c-3 -8 -6 -5 -6 6 -1 11 2 17 5 13 3 -3 4 -12 1 -19z m-494 -5 c-3 -7 -9
-10 -14 -7 -14 8 -11 21 5 21 8 0 12 -6 9 -14z m97 2 c0 -2 -9 -3 -19 -2 -11
0 -18 5 -15 9 4 6 34 0 34 -7z m120 5 c0 -5 -4 -10 -10 -10 -5 0 -10 5 -10 10
0 6 5 10 10 10 6 0 10 -4 10 -10z m22 -7 c-5 -10 -7 -25 -4 -33 3 -11 2 -12
-8 -4 -9 9 -9 17 -1 33 7 12 14 21 17 21 2 0 1 -8 -4 -17z m490 -5 c-6 -6 -16
-7 -22 -3 -9 6 -9 9 1 16 17 10 34 0 21 -13z m-845 6 c-3 -3 -12 -4 -19 -1 -8
3 -5 6 6 6 11 1 17 -2 13 -5z m480 0 c-3 -3 -12 -4 -19 -1 -8 3 -5 6 6 6 11 1
17 -2 13 -5z m-392 -14 c3 -5 2 -10 -4 -10 -5 0 -13 5 -16 10 -3 6 -2 10 4 10
5 0 13 -4 16 -10z"/>
<path d="M2273 523 c4 -3 1 -13 -6 -22 -11 -14 -10 -14 6 -2 20 15 22 31 5 31
-6 0 -8 -3 -5 -7z"/>
<path d="M975 410 c1 -25 19 -29 40 -9 7 7 5 9 -5 7 -8 -2 -19 -7 -23 -13 -5
-6 -7 -4 -5 4 2 8 12 15 22 17 35 5 38 21 3 20 -28 -1 -33 -4 -32 -26z"/>
<path d="M930 426 c0 -2 8 -10 18 -17 15 -13 16 -12 3 4 -13 16 -21 21 -21 13z"/>
<path d="M1765 360 c-4 -6 -10 -8 -15 -5 -5 3 -11 1 -14 -4 -12 -19 12 -20 29
-1 10 11 15 20 12 20 -3 0 -9 -5 -12 -10z"/>
<path d="M2710 1080 c-9 -6 -10 -10 -3 -10 6 0 15 5 18 10 8 12 4 12 -15 0z"/>
<path d="M2710 1050 c-11 -7 -11 -10 -2 -10 7 0 10 -5 7 -10 -4 -6 -11 -7 -17
-4 -7 5 -8 2 -3 -5 9 -15 27 0 31 24 3 18 3 17 -16 5z"/>
<path d="M2756 1018 c3 -5 10 -6 15 -3 13 9 11 12 -6 12 -8 0 -12 -4 -9 -9z"/>
<path d="M2625 981 c-3 -5 -2 -12 3 -15 5 -3 9 1 9 9 0 17 -3 19 -12 6z"/>
<path d="M2696 958 c3 -4 11 -5 19 -1 21 7 19 12 -4 10 -11 0 -18 -5 -15 -9z"/>
<path d="M2587 925 c3 -8 9 -12 14 -9 12 7 11 11 -5 17 -10 4 -13 1 -9 -8z"/>
<path d="M2655 916 c0 -36 10 -40 13 -6 1 17 -1 30 -6 30 -4 0 -8 -11 -7 -24z"/>
<path d="M2707 899 c7 -7 15 -10 18 -7 3 3 -2 9 -12 12 -14 6 -15 5 -6 -5z"/>
<path d="M2650 840 c0 -5 5 -10 10 -10 6 0 10 5 10 10 0 6 -4 10 -10 10 -5 0
-10 -4 -10 -10z"/>
<path d="M2635 810 c-3 -5 -3 -10 1 -10 4 0 -1 -7 -12 -16 -18 -15 -18 -15 0
-6 11 5 21 17 22 26 3 18 -2 21 -11 6z"/>
<path d="M490 779 c0 -5 5 -7 10 -4 6 3 10 8 10 11 0 2 -4 4 -10 4 -5 0 -10
-5 -10 -11z"/>
<path d="M2633 753 c0 -9 4 -10 14 -2 7 6 13 12 13 14 0 1 -6 2 -13 2 -8 0
-14 -6 -14 -14z"/>
<path d="M579 729 c-10 -6 -10 -9 -1 -9 10 0 10 -5 2 -22 -10 -21 -10 -21 3
-6 8 10 18 14 22 10 5 -4 5 -1 0 7 -5 9 -3 12 5 9 7 -2 15 -15 17 -29 2 -18 1
-20 -6 -9 -6 8 -13 11 -18 7 -8 -9 17 -28 28 -21 4 2 10 0 14 -6 3 -5 1 -10
-4 -10 -6 0 -11 -4 -11 -10 0 -16 14 -11 27 9 10 16 9 24 -8 45 -27 35 -51 47
-70 35z m71 -49 c6 -11 8 -20 6 -20 -3 0 -10 9 -16 20 -6 11 -8 20 -6 20 3 0
10 -9 16 -20z"/>
<path d="M535 720 c-4 -6 -1 -9 7 -8 7 2 12 -3 10 -10 -1 -8 2 -11 8 -7 8 5 7
11 -1 21 -14 17 -16 17 -24 4z"/>
<path d="M2571 684 c0 -11 3 -14 6 -6 3 7 2 16 -1 19 -3 4 -6 -2 -5 -13z"/>
<path d="M570 659 c0 -5 5 -7 10 -4 6 3 10 8 10 11 0 2 -4 4 -10 4 -5 0 -10
-5 -10 -11z"/>
<path d="M2464 662 c5 -8 -16 -23 -34 -23 -3 -1 -10 -5 -17 -11 -7 -5 -17 -7
-23 -3 -10 6 -11 5 -15 -33 -2 -16 2 -21 11 -18 7 3 18 -3 24 -12 11 -16 11
-15 6 1 -4 12 -2 17 6 14 7 -2 12 -11 10 -21 -2 -9 1 -16 7 -16 11 0 9 19 -3
38 -8 14 19 52 37 52 6 0 2 -9 -8 -20 -13 -15 -15 -24 -8 -31 8 -8 13 -7 18 2
5 8 4 10 -3 5 -16 -9 -15 7 0 22 15 15 31 16 22 0 -5 -7 -3 -8 6 -3 10 6 7 13
-11 27 -20 17 -21 19 -4 13 36 -12 55 -14 60 -5 3 4 -3 7 -12 5 -10 -1 -31 4
-47 12 -15 8 -25 10 -22 5z m-4 -25 c0 -2 -13 -16 -28 -31 -27 -25 -30 -26
-43 -9 -8 9 -9 14 -3 10 7 -4 17 0 24 8 7 8 16 13 20 10 5 -3 11 -1 15 5 6 9
15 14 15 7z"/>
<path d="M2409 603 c-13 -16 -12 -17 4 -4 16 13 21 21 13 21 -2 0 -10 -8 -17
-17z"/>
<path d="M586 642 c-2 -4 4 -8 15 -8 10 0 19 4 19 8 0 4 -6 8 -14 8 -8 0 -17
-4 -20 -8z"/>
<path d="M622 600 c0 -14 2 -19 5 -12 2 6 2 18 0 25 -3 6 -5 1 -5 -13z"/>
<path d="M626 558 c3 -4 9 -8 15 -8 5 0 9 4 9 8 0 5 -7 9 -15 9 -8 0 -12 -4
-9 -9z"/>
<path d="M735 560 c3 -5 8 -10 11 -10 2 0 4 5 4 10 0 6 -5 10 -11 10 -5 0 -7
-4 -4 -10z"/>
<path d="M635 529 c-4 -6 -5 -12 -2 -15 2 -3 7 2 10 11 7 17 1 20 -8 4z"/>
<path d="M672 525 c-8 -10 -9 -15 -2 -15 6 0 9 -4 6 -9 -7 -11 20 -8 31 3 4 4
1 6 -7 4 -10 -2 -14 3 -12 15 3 20 1 21 -16 2z"/>
<path d="M790 520 c0 -5 5 -10 10 -10 6 0 10 5 10 10 0 6 -4 10 -10 10 -5 0
-10 -4 -10 -10z"/>
<path d="M733 463 c4 -3 1 -13 -6 -22 -11 -14 -10 -14 5 -2 16 12 16 31 1 31
-4 0 -3 -3 0 -7z"/>
<path d="M2294 462 c4 -7 2 -12 -5 -12 -8 0 -9 -3 0 -13 6 -8 9 -17 6 -20 -3
-4 -2 -5 2 -2 11 8 11 45 0 52 -6 3 -7 1 -3 -5z"/>
<path d="M2370 460 c0 -5 5 -10 11 -10 5 0 7 5 4 10 -3 6 -8 10 -11 10 -2 0
-4 -4 -4 -10z"/>
<path d="M760 420 c8 -5 20 -10 25 -10 6 0 3 5 -5 10 -8 5 -19 10 -25 10 -5 0
-3 -5 5 -10z"/>
<path d="M2255 421 c-3 -5 -2 -12 3 -15 5 -3 9 1 9 9 0 17 -3 19 -12 6z"/>
<path d="M2146 394 c-11 -8 -16 -14 -10 -14 13 0 39 18 34 24 -3 2 -14 -2 -24
-10z"/>
<path d="M1081 391 c-8 -5 -10 -14 -5 -22 6 -11 5 -12 -7 -2 -9 7 -20 9 -29 3
-12 -8 -12 -10 3 -16 9 -3 14 -10 11 -16 -3 -5 3 -4 15 4 12 7 19 18 17 24 -2
6 1 17 7 23 13 13 7 14 -12 2z"/>
<path d="M1140 359 c-7 -13 -19 -33 -27 -45 -11 -17 -11 -21 1 -21 8 0 12 6 8
15 -4 11 -1 13 8 7 8 -5 11 -4 7 2 -4 6 0 14 9 17 13 5 15 2 11 -14 -3 -11 -1
-18 4 -14 5 3 9 12 9 21 0 13 3 13 15 3 8 -7 15 -9 15 -6 0 4 8 2 18 -3 13 -7
22 -7 29 0 7 7 15 4 26 -11 14 -21 15 -21 21 -3 4 11 13 20 21 20 20 0 19 -7
-2 -24 -16 -13 -16 -13 5 -3 12 6 28 8 34 4 6 -4 8 -3 5 3 -5 8 31 33 48 33 6
0 -3 -40 -12 -54 -4 -7 0 -3 9 7 10 11 15 24 12 29 -4 6 -1 8 7 6 8 -3 13 -11
12 -17 -4 -17 8 -13 23 7 13 16 13 16 14 0 0 -25 -4 -33 -13 -30 -5 1 -6 -2
-2 -8 4 -6 14 -5 28 4 12 8 30 12 40 11 9 -2 24 6 32 18 13 19 20 17 16 -5 0
-4 9 -12 22 -18 20 -10 20 -10 5 3 -20 16 -14 29 8 20 8 -3 1 8 -16 26 -30 29
-32 30 -56 15 -22 -15 -36 -43 -14 -29 6 3 10 2 10 -4 0 -19 -19 -21 -30 -4
-11 17 -11 17 -6 1 3 -10 1 -18 -4 -18 -6 0 -10 6 -10 13 -1 6 -9 21 -18 33
-18 22 -46 25 -72 9 -21 -13 -62 -13 -79 -1 -11 8 -13 8 -7 -1 11 -19 -5 -16
-21 5 -8 9 -12 12 -9 5 12 -22 -14 -24 -41 -3 -24 18 -28 19 -42 6 -13 -13
-16 -13 -26 1 -11 15 -14 14 -25 -8z m23 -2 c3 -8 -1 -14 -8 -14 -7 0 -11 6
-8 14 3 7 6 13 8 13 2 0 5 -6 8 -13z m79 -23 c-2 -5 -9 -7 -15 -5 -10 3 -23 6
-46 10 -2 1 2 8 9 16 11 13 16 14 34 2 12 -8 19 -18 18 -23z m212 -6 c-3 -5
-12 -4 -20 3 -7 6 -11 15 -8 21 3 5 12 4 20 -3 7 -6 11 -15 8 -21z m122 10
c10 -13 12 -17 4 -10 -12 10 -17 9 -31 -9 -14 -19 -16 -20 -14 -2 1 17 12 43
19 43 2 0 11 -10 22 -22z m-286 -14 c0 -8 -4 -12 -10 -9 -5 3 -10 10 -10 16 0
5 5 9 10 9 6 0 10 -7 10 -16z m80 11 c0 -7 -30 -13 -34 -7 -3 4 4 9 15 9 10 1
19 0 19 -2z"/>
<path d="M1194 348 c-4 -7 -4 -10 1 -6 4 4 16 3 26 -3 11 -5 19 -7 19 -5 0 3
-9 10 -19 16 -15 7 -22 7 -27 -2z"/>
<path d="M1669 364 c-9 -11 -14 -12 -19 -4 -5 8 -9 7 -13 -4 -4 -10 -1 -16 7
-16 9 0 12 -7 9 -19 -6 -24 6 -31 32 -20 18 9 18 9 -2 5 -16 -3 -23 1 -23 11
0 8 5 11 12 7 6 -4 8 -3 4 4 -3 6 3 13 14 17 23 7 26 21 6 28 -8 3 -20 -1 -27
-9z m21 -8 c0 -2 -7 -7 -16 -10 -8 -3 -12 -2 -9 4 6 10 25 14 25 6z"/>
<path d="M870 366 c0 -2 7 -7 16 -10 8 -3 12 -2 9 4 -6 10 -25 14 -25 6z"/>
<path d="M920 360 c-12 -7 -10 -9 8 -7 12 0 22 5 22 9 0 11 -12 10 -30 -2z"/>
<path d="M2067 319 c7 -7 15 -10 18 -7 3 3 -2 9 -12 12 -14 6 -15 5 -6 -5z"/>
<path d="M1377 313 c-4 -3 -7 -11 -7 -17 0 -6 5 -5 12 2 6 6 9 14 7 17 -3 3
-9 2 -12 -2z"/>
<path d="M1993 305 c0 -8 4 -12 9 -9 5 3 6 10 3 15 -9 13 -12 11 -12 -6z"/>
<path d="M1176 302 c-2 -4 -1 -14 4 -22 7 -11 9 -9 7 8 -1 24 -3 26 -11 14z"/>
<path d="M1256 295 c7 -18 6 -19 -12 -5 -18 14 -18 14 -5 -3 10 -12 17 -15 25
-7 7 7 6 14 -3 23 -10 10 -11 8 -5 -8z"/>
<path d="M1624 289 c1 -7 10 -13 19 -15 9 -1 15 2 11 7 -3 5 -9 7 -14 4 -4 -3
-11 0 -13 5 -3 6 -4 5 -3 -1z"/>
<path d="M1716 287 c3 -10 9 -15 12 -12 3 3 0 11 -7 18 -10 9 -11 8 -5 -6z"/>
<path d="M1416 274 c-5 -14 -4 -15 9 -4 17 14 19 20 6 20 -5 0 -12 -7 -15 -16z"/>
<path d="M1546 282 c-3 -5 1 -9 9 -9 8 0 15 4 15 9 0 4 -4 8 -9 8 -6 0 -12 -4
-15 -8z"/>
</g>
</svg>
